<svg xmlns="http://www.w3.org/2000/svg" viewBox="0 0 1200 630" role="img" aria-labelledby="title desc">
  <title id="title">農時價 VeggiePrice TW</title>
  <desc id="desc">台灣蔬果批發行情即時查詢的社群分享圖片</desc>
  <defs>
    <linearGradient id="bg" x1="0" y1="0" x2="1200" y2="630" gradientUnits="userSpaceOnUse">
      <stop stop-color="#F7F6E8"/>
      <stop offset="1" stop-color="#D7F0CF"/>
    </linearGradient>
    <linearGradient id="panel" x1="90" y1="80" x2="760" y2="570" gradientUnits="userSpaceOnUse">
      <stop stop-color="#FFFFFF" stop-opacity=".92"/>
      <stop offset="1" stop-color="#EEF7EA" stop-opacity=".84"/>
    </linearGradient>
    <linearGradient id="leaf" x1="715" y1="130" x2="1060" y2="485" gradientUnits="userSpaceOnUse">
      <stop stop-color="#2E7D32"/>
      <stop offset="1" stop-color="#0D631B"/>
    </linearGradient>
    <linearGradient id="fruit" x1="860" y1="170" x2="1040" y2="360" gradientUnits="userSpaceOnUse">
      <stop stop-color="#FFB54A"/>
      <stop offset="1" stop-color="#F57C00"/>
    </linearGradient>
  </defs>
  <rect width="1200" height="630" fill="url(#bg)"/>
  <circle cx="1014" cy="95" r="180" fill="#FFFFFF" opacity=".3"/>
  <circle cx="152" cy="574" r="150" fill="#FFFFFF" opacity=".22"/>
  <rect x="70" y="70" width="640" height="490" rx="36" fill="url(#panel)" stroke="#FFFFFF" stroke-opacity=".62"/>
  <text x="124" y="184" fill="#0D631B" font-size="68" font-weight="700" font-family="'Noto Sans TC', 'PingFang TC', sans-serif">農時價</text>
  <text x="124" y="248" fill="#355B35" font-size="28" font-weight="600" font-family="'Noto Sans TC', 'PingFang TC', sans-serif">台灣蔬果批發行情即時查詢</text>
  <text x="124" y="302" fill="#567056" font-size="24" font-family="'Noto Sans TC', 'PingFang TC', sans-serif">免費查詢今日菜價、歷史走勢與各市場比價</text>
  <rect x="124" y="354" width="214" height="66" rx="33" fill="#0D631B"/>
  <text x="170" y="397" fill="#F7F6E8" font-size="28" font-weight="700" font-family="'Noto Sans TC', 'PingFang TC', sans-serif">免費查詢</text>
  <rect x="124" y="450" width="250" height="14" rx="7" fill="#D8E9D5"/>
  <rect x="124" y="488" width="310" height="14" rx="7" fill="#D8E9D5"/>
  <rect x="124" y="526" width="220" height="14" rx="7" fill="#D8E9D5"/>
  <path d="M720 415c30-112 109-174 225-190 74-10 132 7 191 56-19 93-80 163-171 193-101 34-195 9-245-59Z" fill="url(#leaf)"/>
  <path d="M961 173c21-38 54-62 93-62 25 0 46 9 66 28-38 4-64 18-84 47-20 28-31 63-35 115-24-35-53-58-98-73 16-21 34-39 58-55Z" fill="#1B5E20" opacity=".93"/>
  <circle cx="936" cy="295" r="90" fill="url(#fruit)"/>
  <path d="M913 220c27-31 58-42 101-27-29 15-48 38-57 72-17-21-29-34-44-45Z" fill="#FCE3A2" opacity=".72"/>
  <path d="M809 432h189" stroke="#F7F6E8" stroke-width="30" stroke-linecap="round" opacity=".94"/>
  <path d="M772 510h140" stroke="#F7F6E8" stroke-width="30" stroke-linecap="round" opacity=".62"/>
</svg>